<svg xmlns="http://www.w3.org/2000/svg" xmlns:xlink="http://www.w3.org/1999/xlink" width="901" height="967" viewBox="0 0 901 967">
  <defs>
    <clipPath id="clip-path">
      <rect id="Rectangle_559" data-name="Rectangle 559" width="901" height="967" transform="translate(0 109)" fill="#fff" stroke="#707070" stroke-width="1"/>
    </clipPath>
    <clipPath id="clip-path-2">
      <rect id="Rectangle_558" data-name="Rectangle 558" width="1570.104" height="956.409" fill="none"/>
    </clipPath>
  </defs>
  <g id="Mask_Group_1" data-name="Mask Group 1" transform="translate(0 -109)" clip-path="url(#clip-path)">
    <g id="Group_711" data-name="Group 711" transform="translate(-181.846 133)">
      <g id="Group_710" data-name="Group 710" clip-path="url(#clip-path-2)">
        <path id="Path_776" data-name="Path 776" d="M.071,64.992C42.25,94.3,96,125.225,126.648,165.171c48.095,62.686-17.228,152.007,54.468,210.5,57.768,47.133,55.535,98.472,49.339,167.648-4.669,52.141-8.6,144.04,57.064,156.142,70.846,13.057,114.427-25.528,164.25-74.046,63.935-62.26,177.2-103.177,259.575-69.707,43.435,17.647,89.491,18.025,138.272,15.388,34.7-1.876,74.56-10.154,106.985,3.468,43.313,18.193,46.326,71.674,57.179,111.237,15.4,56.124,65,129.159,116.227,156.893,86.2,46.668,166.753-80.555,245.643-92.628,63.042-9.647,137.483,46.75,194.154-4.925" transform="translate(0.099 90.542)" fill="none" stroke="#fff" stroke-width="0.25"/>
        <path id="Path_777" data-name="Path 777" d="M.071,64.992c42.957,29.3,95.778,58.928,129.085,97.687,51.2,59.577-10.874,149.544,55.865,205.538,57.258,48.042,62.365,87.127,55.734,161.414-4.669,52.3-12.5,145.516,54.834,158.552C366.954,702,409.679,661.144,462,614.72c72.33-64.169,167.1-106.154,259.025-67.994,44.27,18.379,88.28,21.878,136.86,20.485,34.542-.991,73.615-8.508,105.542,4.844,43.675,18.264,45.56,69.08,55.475,109.507,13.677,55.772,63.885,127.707,114.506,154.548,84.7,44.912,168.833-79.988,245.564-88.943,61.589-7.189,134.7,48.614,190.828-2.025" transform="translate(0.099 90.542)" fill="none" stroke="#fff" stroke-width="0.25"/>
        <path id="Path_778" data-name="Path 778" d="M.071,64.992c43.713,29.261,95.7,57.751,131.538,95.206,54.2,56.643-7.088,147.017,57.284,200.609,56.856,47.336,68.008,81.35,61.956,155.553-4.274,52.409-16.426,146.675,52.247,160.88,72.055,14.907,115.909-29.972,170.34-73.483,34.928-27.923,77.5-56.095,119.168-75.257,51.1-23.5,88.979-12.648,138.067,9.683,43.445,19.765,87.019,25.594,135.453,25.3,34.332-.208,71.782-6.564,104.008,6.155,44.275,17.477,45.646,67.816,54.257,107.8,11.777,54.681,62.437,127.209,112.374,151.839,85.863,42.351,169.718-81.641,245.509-84.887,57.918-2.479,132.057,47.271,187.533.756" transform="translate(0.099 90.542)" fill="none" stroke="#fff" stroke-width="0.25"/>
        <path id="Path_779" data-name="Path 779" d="M.071,64.992c44.438,29.2,95.421,56.7,133.934,92.731,57.37,53.685-2.417,144.55,58.8,195.624,55.477,46.29,72.665,77.066,67.807,150.4-3.465,52.311-19.906,147.39,49.449,162.874,72.627,16.211,118.163-30.153,175.2-73.4,36.624-27.77,75.7-59.543,117.828-79.117,51.084-23.735,89.7-7.416,137.234,16.142,42.555,21.093,85.679,28.974,134,29.627,34.035.462,70.006-4.612,102.364,7.452,44.912,16.747,46.025,66.22,53.357,106.044,9.943,53.991,60.457,125.929,110.043,148.86,87.17,40.31,164.625-77.028,245.473-80.466,61.51-2.616,126.539,51.225,184.245,3.381" transform="translate(0.099 90.542)" fill="none" stroke="#fff" stroke-width="0.25"/>
        <path id="Path_780" data-name="Path 780" d="M.071,64.992c45.13,29.1,95.639,55.736,136.272,90.269,60.077,51.06,2.989,142.034,60.491,190.481,53.094,44.732,76.164,74.881,73.079,146.23-2.393,55.372-23.73,140.185,46.63,164.315,69.492,23.833,130.38-35.8,180.478-73.768,36.61-27.748,73.517-63.916,116.184-83.243,50.852-23.031,91.408-.481,136.815,23.759,41.779,22.3,84.217,31.783,132.467,33.3,33.626,1.06,68.326-2.589,100.588,8.792,45.639,16.1,46.616,64.248,52.8,104.235,8.3,53.7,57.923,123.959,107.544,145.648,88.38,38.627,162.836-75.64,245.394-75.781,60.462-.1,123.868,52.73,180.995,5.911" transform="translate(0.099 90.542)" fill="none" stroke="#fff" stroke-width="0.25"/>
        <path id="Path_781" data-name="Path 781" d="M.071,64.992C45.856,93.963,96.1,119.831,138.623,152.808c62.767,48.671,9.048,139.213,62.449,185.068,49.791,42.758,78.442,75.182,77.6,143.25-.677,54.492-25.274,139.751,44,165.04,68.408,24.975,137.873-36.337,185.939-74.936,35.268-28.32,71.117-68.716,114.408-86.918,50.478-21.22,93.827,7.881,136.794,32.307,41.145,23.388,82.608,33.851,130.808,36.2,33.083,1.611,66.763-.266,98.662,10.243,46.293,15.249,46.9,62.327,52.716,102.416,7.711,53.142,54.451,121.274,104.781,142.192,89.384,37.151,161.373-74.173,245.25-70.872,59.373,2.336,121.238,54.142,177.781,8.349" transform="translate(0.099 90.542)" fill="none" stroke="#fff" stroke-width="0.25"/>
        <path id="Path_782" data-name="Path 782" d="M.071,64.992c46.4,28.813,96.558,53.982,140.773,85.372,66.2,47,14.28,132.2,64.775,179.272C251.4,372.31,285.143,407.75,286.8,471.24c1.386,53.12-25.516,138.818,41.8,164.925,67.572,26.2,145.636-37.038,191.34-77.114,33.138-29.06,68.764-73.811,112.659-89.472,50.179-17.9,96.567,17.355,137.117,41.442,40.516,24.07,80.127,35.043,128.88,38.254,32.453,2.14,65.375,2.118,96.687,11.841,47.011,14.6,48.044,59.594,52.852,100.485,6.256,53.214,51.952,123.516,102.052,138.624,90.676,27.344,156.161-72.629,245.013-65.787,58.048,4.468,118.658,55.465,174.607,10.7" transform="translate(0.099 90.542)" fill="none" stroke="#fff" stroke-width="0.25"/>
        <path id="Path_783" data-name="Path 783" d="M.071,64.992c46.987,28.627,96.8,53.625,142.937,82.939,71.085,45.163,22.558,122.193,67.57,172.958,37.706,42.526,79.476,83.422,83.673,141.372,3.465,47.843-23.012,140.434,40.293,163.889,67.041,24.838,152.945-38.18,196.421-80.366,30.67-29.761,66.639-78.109,111.089-90.257,49.923-13.643,99.04,26.731,137.7,50.7,68.723,42.593,144.952,30.759,221.319,53.089,47.729,13.954,49.485,56.664,53.352,98.492,4.932,53.36,48.578,120.362,99.243,134.92,89.323,25.661,157.52-70.851,244.661-60.565,56.868,6.715,116.124,56.712,171.475,12.985" transform="translate(0.099 90.542)" fill="none" stroke="#fff" stroke-width="0.25"/>
        <path id="Path_784" data-name="Path 784" d="M.071,64.992c47.535,28.416,97.419,52.644,145.04,80.514,73.359,42.935,31.4,113.985,71.392,166.083,28.327,36.895,80.411,91.19,84.48,142.482,3.843,48.487-21.663,138.627,39.8,161.893,68.85,26.066,157.788-38.733,200.893-84.616,29.34-31.233,64.062-80.28,109.931-88.467,50.148-8.95,100.65,35.119,138.351,59.263,66.017,42.277,142.085,35.725,216.7,55.5,48.4,12.832,51.359,54.051,54.154,96.4,3.642,55.15,45.706,116.311,96.448,131.139,46.975,13.729,89.412-.751,136.336-22.448,33.032-15.271,70.794-38.668,107.839-32.788,55.616,8.826,113.626,57.887,168.378,15.192" transform="translate(0.099 90.542)" fill="none" stroke="#fff" stroke-width="0.25"/>
        <path id="Path_785" data-name="Path 785" d="M.071,64.992c48.056,28.184,98.118,51.737,147.086,78.1,74.642,40.185,41.145,102.73,76.511,158.971,25.384,40.367,74.795,97.307,83.254,144.827,7.993,44.914-18.374,135.717,40.688,158.55,72.047,27.851,161.474-40.133,204.457-89.666,28.411-32.74,61.865-80.332,109.359-83.982,50.725-3.9,101.148,42.141,138.89,66.878C863.349,539.985,939.2,538.187,1012,556.126c49.1,12.1,53.453,50.811,55.408,94.275,2.489,55.305,42.112,112.855,93.535,127.247,47.071,13.177,89.719-.51,136.983-20.961,32.7-14.151,71.686-36.854,106.556-28.878,50.887,11.64,113.08,57.684,165.32,17.333" transform="translate(0.099 90.542)" fill="none" stroke="#fff" stroke-width="0.25"/>
        <path id="Path_786" data-name="Path 786" d="M.071,64.992C48.62,92.925,99,115.906,149.144,140.687c74.646,36.89,52.912,89.261,82.7,151.841,23.642,49.674,64.138,98.982,79.536,148.36,14.325,45.938-14.959,130.818,43.737,154.567,75.8,30.673,162.414-41.638,207.08-96.249,28.347-34.657,60.032-77.882,109.474-76.642,51.565,1.292,100.406,47.3,139.177,73.067,59.886,39.807,135.111,41.841,206.283,59.12,50.282,12.207,55.805,46.3,57.018,92.08,1.465,55.377,38.539,109.313,90.623,123.3,47.106,12.652,89.986-.22,137.528-19.38,32.374-13.045,71.133-34.112,105.207-25.025,49.861,13.3,110.455,58.9,162.3,19.415" transform="translate(0.099 90.542)" fill="none" stroke="#fff" stroke-width="0.25"/>
        <path id="Path_787" data-name="Path 787" d="M.071,64.992c49.021,27.665,99.832,50.112,151,73.3,73.129,33.138,67.07,81.694,89.642,144.83,19.36,54.156,49.425,101.442,73.584,152.648,21.282,45.11-10.317,127.894,48.652,150.674C443.74,617.654,525.8,540.4,572.131,481.9c28.919-36.51,59.457-72.947,110.381-66.771,52.216,6.335,98.93,50.895,139.026,77.681,56.882,38,131.751,45.364,200.494,60.707,52.541,11.729,55.985,42.851,58.976,89.833,3.537,55.568,33.279,105.468,87.729,119.309,47.415,12.057,90.008-.268,138.069-17.74,31.594-11.485,69.377-31.5,103.677-21.217,51.555,15.445,106.477,61.113,159.32,21.442" transform="translate(0.099 90.542)" fill="none" stroke="#fff" stroke-width="0.25"/>
        <path id="Path_788" data-name="Path 788" d="M.071,64.992c49.471,27.382,103.244,48.348,152.875,70.916,70.14,31.891,77.408,68.838,97.261,137.576,16.917,58.572,33.5,105.025,65.6,157.848,26.53,43.66-2.472,125.926,55.226,147.072,84.9,31.113,163.575-54.37,210.947-114.181,29.658-37.448,60.656-64.882,112.056-54.484,52.294,10.578,97.192,52.819,138.347,80.2,54.3,36.124,128.02,48.894,194.331,62.485,52.969,10.858,58.792,39.156,61.223,87.5,2.788,55.36,29.948,101.861,84.927,115.327,47.334,11.592,90.192.089,138.38-16.02,31.245-10.444,68.833-28.885,102.184-17.508,50.117,17.094,104.12,62.068,156.376,23.422" transform="translate(0.099 90.542)" fill="none" stroke="#fff" stroke-width="0.25"/>
        <path id="Path_789" data-name="Path 789" d="M.071,64.992c49.9,27.088,103.974,47.528,154.689,68.539,67.079,27.791,87.577,61.721,105.472,129.911,15.95,60.788,17.673,109.66,55.853,163.927,29.692,42.2,7.845,124.663,63.219,143.865,88.194,30.582,167.153-62.422,212.567-124.572,70.147-96,184.393-3.638,251.489,40.049,52.426,34.138,123.045,52.649,187.82,64.758,53.3,9.963,61.759,35.344,63.772,85.1,2.218,54.913,26.916,98.279,82.2,111.347,47.2,11.157,90.312.476,138.553-14.251,30.907-9.436,68.266-26.272,100.626-13.883,48.585,18.6,101.794,62.99,153.471,25.358" transform="translate(0.099 90.542)" fill="none" stroke="#fff" stroke-width="0.25"/>
        <path id="Path_790" data-name="Path 790" d="M.071,64.992c50.318,26.784,104.752,46.7,156.451,66.172,63.705,24,96.91,55.518,114.145,121.726,16.182,62.173,1.3,114.4,44.713,170.778,31.18,40.494,20.023,124.3,72.359,141.065,90.087,28.856,163.771-73.424,214.24-134.927,71.315-86.906,190.347,13.155,252.47,52.957,51.617,33.073,116.485,56.973,180.992,67.881,53.439,9.034,66.443,32.075,66.658,82.649.227,53.848,25.051,94.88,79.519,107.389,46.956,10.781,90.36.885,138.579-12.454,32.051-8.867,67.326-22.584,99.006-10.343,46.242,17.87,99.494,63.88,150.6,27.255" transform="translate(0.099 90.542)" fill="none" stroke="#fff" stroke-width="0.25"/>
        <path id="Path_791" data-name="Path 791" d="M.071,64.992c50.72,26.473,105.573,45.855,158.157,63.815,60.283,20.59,104.623,50.1,123.124,112.975,18.283,62.121-13.816,119.781,32.633,178.245,21.007,26.446,31.063,48.248,39.968,80.72,7.115,25.941,14.32,49.688,42.38,57.863,91.243,26.583,161.644-88.182,216.609-143.674,72.21-72.9,192.113,24.759,252.264,62.286,52.986,33.051,108.4,62.628,174.3,72.725,53.747,8.235,69.4,28.172,69.743,80.151.349,52.936,22.62,91.362,77.011,103.457,46.728,10.389,90.321,1.311,138.445-10.64,31.771-7.89,66.5-20.064,97.326-6.89,44.852,19.171,97.223,64.744,147.771,29.117" transform="translate(0.099 90.542)" fill="none" stroke="#fff" stroke-width="0.25"/>
        <path id="Path_792" data-name="Path 792" d="M.071,64.992c51.11,26.152,106.422,45,159.808,61.467,57.435,17.714,110.476,45.28,132.227,103.67,22.747,61.07-26.554,125.735,20.148,186.1,19.858,25.673,36.56,47.286,47.918,78.138,8.945,24.293,15.955,50.962,44.931,58.1,89.355,22,162.757-105.551,219.211-150.095,73.366-57.887,192.513,31.829,251.219,68.178C931,504.892,974.753,539.887,1043.4,549.363c53.838,7.435,72.337,24.348,73.036,77.607.677,51.766,20.693,87.933,74.658,99.571,46.455,10.02,90.192,1.749,138.146-8.823,31.5-6.943,66.146-17.755,95.6-3.525,42.425,20.5,95.881,65,144.973,30.95" transform="translate(0.099 90.542)" fill="none" stroke="#fff" stroke-width="0.25"/>
        <path id="Path_793" data-name="Path 793" d="M.071,64.992c51.491,25.827,107.3,44.132,161.409,59.127,55.781,15.455,115.425,41.6,141.223,93.894,28.421,57.607-36.79,132.974,7.9,194.056,18.532,25.331,41.128,46.889,54.654,75.745,11.166,23.824,18.2,52.68,48.848,57.988,90.276,15.634,157.363-113.992,221.829-153.981,75.707-46.965,191.12,32.925,249.548,70.954,56.289,36.641,89.924,77.339,161.641,86.112,50.574,6.189,76.853,19.676,76.3,75-.51,51.481,20.2,84.963,72.675,95.768,45.826,9.436,89.2,2.455,137.406-6.935,29.672-5.779,65.708-16.3,94.081-.33,41.894,23.577,93.49,65.938,142.214,32.757" transform="translate(0.099 90.542)" fill="none" stroke="#fff" stroke-width="0.25"/>
        <path id="Path_794" data-name="Path 794" d="M.071,64.992c51.859,25.494,108.191,43.253,162.96,56.794C219.03,135.63,279.825,160,312.9,205.574c38.785,53.448-43.478,139.57-3.4,201.753,17.053,26.458,41.839,47.374,59.117,74.041,14.239,21.974,23.536,53.958,54.755,56.423C515,545.025,572.689,415.523,647.809,383.185c81.041-34.885,186.748,29.014,246.277,71.2,54.156,38.374,81.469,85.916,156.625,94.122,51.826,5.657,77.42,16.259,79.811,72.354,2.139,50.179,17.41,81.378,70.779,92.025,45.512,9.082,88.919,2.869,136.729-5.152,29.529-4.954,64.6-13.828,92.286,2.865,40.623,24.491,91.13,66.857,139.488,34.545" transform="translate(0.099 90.542)" fill="none" stroke="#fff" stroke-width="0.25"/>
        <path id="Path_795" data-name="Path 795" d="M.071,64.992c52.218,25.159,109.1,42.368,164.463,54.47C222.46,132.124,279.95,155.751,322.4,193.015c50.186,44.053-43.761,149.075-12.932,208.769,14.713,28.492,40.245,49.169,61.094,73.407,17.972,20.894,31.546,51.6,62.161,52.493,89.991,2.632,143.88-127.2,227.129-151.337,83.006-24.06,182.94,22.945,242.137,69.463,52.85,41.53,73.148,94.715,152.2,102.395,51.479,5,79.909,12.961,83.3,69.686,2.9,48.547,16.833,78.308,69.2,88.359,45.24,8.682,88.524,3.274,135.86-3.408,29.4-4.15,63.612-11.286,90.465,5.985,39.12,25.159,88.8,67.754,136.8,36.316" transform="translate(0.099 90.542)" fill="none" stroke="#fff" stroke-width="0.25"/>
        <path id="Path_796" data-name="Path 796" d="M.071,64.992c52.567,24.817,110.007,41.475,165.92,52.153,59.984,11.456,111.431,38.508,164.9,63.451,53.85,25.123-31.328,172.887-19.8,214.632,10.446,37.84,87.423,121.578,131.043,120.413,88.457-2.367,140.4-125.919,230.082-144.8,81.766-17.211,181.392,17.57,237.5,66.01,51.835,44.749,64.65,103.931,147.847,111.115,51.067,4.411,82.153,9.857,86.7,66.991,3.736,47.02,16.821,75.285,67.979,84.777,44.871,8.323,88,3.666,134.8-1.709,29.292-3.365,62.578-8.768,88.629,9.039,37.649,25.738,86.507,68.64,134.14,38.075" transform="translate(0.099 90.542)" fill="none" stroke="#fff" stroke-width="0.25"/>
        <path id="Path_797" data-name="Path 797" d="M.071,64.992c52.907,24.472,110.924,40.58,167.332,49.844,59.062,9.7,112.388,42.2,170.625,53.814,60.728,12.109-21.665,189.256-22.383,217.9-1.015,40.422,86.459,121.722,135.118,115.1,44.591-6.064,82.379-48.877,115.861-75.8,35.758-28.753,72.225-51.759,117.663-60.266,82.18-15.388,178.874,11.688,233.4,61.776,23.4,21.5,34.03,64.387,57.5,89.1,22.28,23.465,54.776,29.067,85.7,31.316,51.033,3.709,83.632,9.333,90.173,64.428,5.416,45.611,17.441,72.091,66.914,81.132,44.273,8.091,87.349,4.044,133.525-.069,29.194-2.6,61.513-6.268,86.794,12.042,36.22,26.231,84.24,69.506,131.514,39.822" transform="translate(0.099 90.542)" fill="none" stroke="#fff" stroke-width="0.25"/>
        <path id="Path_798" data-name="Path 798" d="M.071,64.992c53.24,24.123,111.845,39.685,168.7,47.544,59.043,8.161,119.814,42.04,174.662,45,70.906,3.831-9.216,187.523-18.111,214.886-18.279,56.229,83.5,124.553,131.816,115.157,46.163-8.977,82.975-49.99,119.853-76.044,37.625-26.583,74.06-41.8,118.874-51.4,80.782-17.3,178.582,6.895,230.362,57.1,23.9,23.177,30.173,69.427,52.78,96.8,21.222,25.695,53.482,31.518,85.167,33.588,50.555,3.307,85.107,6.641,93.425,61.709,6.713,44.457,17.635,69.058,66.263,77.729,43.722,7.794,86.569,4.432,132.043,1.505,29.12-1.876,60.419-3.784,84.973,15,34.832,26.645,82.005,70.368,128.922,41.566" transform="translate(0.099 90.542)" fill="none" stroke="#fff" stroke-width="0.25"/>
        <path id="Path_799" data-name="Path 799" d="M.071,64.992c53.565,23.771,112.764,38.793,170.034,45.249,58.873,6.636,118.046,33.655,177.47,35.9,93.61,3.53,4.827,162.359-8.1,207.123-11.9,41.188-6.849,68.573,30.2,95.648,26.288,19.214,59.785,33.2,92.6,24.984,47.13-11.805,85.124-50.507,125.661-75.3,38.216-23.379,76.046-33.54,118.893-44.445,78.882-20.076,173.564,2.477,228.776,52.292,14.517,13.1,25.219,32.994,31.9,53.036q7.625,25.918,16.02,51.591c20.03,28.2,51.017,34.468,83.96,36.431,49.782,2.967,86.3,4.521,96.517,59,8.084,43.117,17.822,66.546,65.945,74.433,60.623,9.934,161.108-19.913,213.505,20.911,34.239,26.676,79.8,71.219,126.359,43.306" transform="translate(0.099 90.542)" fill="none" stroke="#fff" stroke-width="0.25"/>
        <path id="Path_800" data-name="Path 800" d="M.071,64.992C53.955,88.409,113.754,102.9,171.4,107.951c58.964,5.169,118.881,28.651,178.92,27.308,26.7-.6,47.76-3.968,56.2,24.453,13.6,45.793-35.059,129.358-49.057,169.974-14.579,42.308-28.189,80.084,12.923,110.964,27.09,20.351,63.8,29.268,96.594,19.88,48.463-13.873,88.426-50.5,132.6-73.692,37.9-19.9,77.128-26.99,117.5-39.482,75.987-23.517,182.445-1.072,228.9,47.58C973.349,423.614,971.3,467.583,989.22,507.1c14.672,32.355,49.346,38.493,81.6,40.252,48.817,2.664,87.308,3.03,99.4,56.308,9.491,41.813,18.063,64.277,65.857,71.425,60.709,9.079,158.3-17.283,209.9,25.01,30.852,25.291,79.859,73.924,123.828,45.048" transform="translate(0.099 90.542)" fill="none" stroke="#fff" stroke-width="0.25"/>
        <path id="Path_801" data-name="Path 801" d="M.071,64.992a534,534,0,0,0,172.59,40.676c59.1,3.717,119.034,23.386,179.212,19.236,21.241-1.467,55.432-8.771,68.082,13.418,21.722,38.1-28.84,130.485-41.377,164.18-15.452,41.533-46.558,93.918-5.176,128.6,26.65,22.335,66.388,26.142,98.566,16.307,50.012-15.29,92.408-50,139.967-71.327,37.1-16.635,76.862-22.328,114.681-36.459,73.053-27.3,186.212-3.365,230.817,43.167,47.317,49.361,15.242,159.916,116.82,164.386,47.621,2.1,88.146,2,102.024,53.666,10.9,40.585,18.566,62.468,65.892,68.752,60.606,8.048,155.671-14.825,206.311,28.756,29.649,25.516,77.619,74.776,121.324,46.8" transform="translate(0.099 90.542)" fill="none" stroke="#fff" stroke-width="0.25"/>
        <path id="Path_802" data-name="Path 802" d="M.071,64.992a511.661,511.661,0,0,0,173.82,38.4c59.122,2.266,118.517,17.846,178.551,11.664,19.468-2,61.4-11.231,78.183,4.681C461.471,148.979,412.237,245.63,402,272.7,387.884,310.039,342.769,383.9,378.532,420.4c24.486,24.994,69,23.443,99.255,14,51.6-16.108,96.706-49.109,147.223-68.683,36.155-14.007,75.034-19.305,110.488-34.834,69.353-30.376,192.661-4.31,234.5,39.2C1016,417.918,974.67,543.1,1077.885,546.891c46.647,1.714,88.751,1.314,104.261,51.141,12.274,39.432,19.14,60.9,66.017,66.416,60.871,7.165,152.8-12.923,202.794,32.147,28.442,25.645,75.407,75.621,118.847,48.547" transform="translate(0.099 90.542)" fill="none" stroke="#fff" stroke-width="0.25"/>
        <path id="Path_803" data-name="Path 803" d="M.071,64.992c54.8,22.34,116.438,35.308,175.024,36.122,58.962.821,117.526,12.143,177.146,4.566,21.435-2.723,64.847-12.9,85.3-.172,40.133,24.968.189,106.178-10.716,135.963-12.619,34.461-68.7,129.743-40.592,166.811,21.206,27.964,70.693,21.787,98.618,13.1,52.924-16.462,100.691-47.393,153.471-65.184,35.469-11.956,72.028-18.791,105.523-35,65.232-31.563,195.274-4.461,239.755,35.763,53.132,48.049-10.745,185.81,98.5,189.232,45.032,1.41,88.589,1.189,105.726,49.035,13.727,38.321,19.6,59.534,66.192,64.425,61.606,6.466,149.68-11.669,199.381,35.181,27.281,25.714,73.229,76.463,116.4,50.308" transform="translate(0.099 90.542)" fill="none" stroke="#fff" stroke-width="0.25"/>
        <path id="Path_804" data-name="Path 804" d="M.071,64.992C55.161,86.97,117.43,99.46,176.272,98.845c58.624-.613,116.258,6.327,175.21-2.116,26.2-3.752,64.26-12.265,90.331-2.62,49.3,18.233,21.892,81.654,10.24,116.926-13.787,41.731-35.22,84.386-48.655,127.7-4.944,15.943-15.424,39.716-7.019,55.949,16.285,31.453,72.241,21.5,97.068,13.485,86.064-27.779,176.149-64.739,259.879-97.017,67.718-26.107,197.9-7.9,244.771,32.465,55.336,47.669-23.522,196,88.675,201.53,44.038,2.171,87.825,1.584,106.561,47.271,15.266,37.23,19.894,58.371,66.378,62.774,62.511,5.918,146.656-10.786,196.117,37.866,26.161,25.733,71.083,77.305,113.975,52.084" transform="translate(0.099 90.542)" fill="none" stroke="#fff" stroke-width="0.25"/>
        <path id="Path_805" data-name="Path 805" d="M.071,64.992C55.45,86.609,118.358,98.637,177.43,96.579c58.141-2.027,114.829.445,172.949-8.436,29.608-4.523,64.133-10.542,94.012-3.937,52.941,11.7,43.351,57.9,32.343,98.862-11.219,41.75-31.865,84.867-47.939,127.47-6.481,17.173-22.2,46.793-16.539,65.009,11.626,37.39,61.905,28.1,91.453,19.021,87.739-26.961,174.763-65.524,262.768-92.715,33.992-10.5,68.049-10.886,103.321-6.5,44.617,5.55,108.464,5.363,143.456,34.935,68.388,57.794-43.122,203.89,78.65,213.453,42.026,3.3,87.761,2.113,106.544,45.4,15.615,35.981,20.224,58.11,66.754,61.92,61.781,5.062,145.066-9.367,193.027,40.214,24.857,25.7,68.965,78.143,111.575,53.872" transform="translate(0.099 90.542)" fill="none" stroke="#fff" stroke-width="0.25"/>
        <path id="Path_806" data-name="Path 806" d="M.071,64.992C55.735,86.248,119.3,97.828,178.57,94.315c57.583-3.413,113.312-5.487,170.58-14.476,30.9-4.851,65.2-9.62,96.472-4.193,49.811,8.646,61.709,39.288,54.3,82.986-6.751,39.8-26.889,82.441-43.368,123.248-8.113,20.088-25.228,48.793-23.254,70.542,4.066,44.8,45.245,38.68,82.352,27.93,89.079-25.8,177.063-62.911,267.054-87.263,65.438-17.707,192.462-16.087,246.064,24.171,72.588,54.52-53.742,212.421,68.745,224.7,40.767,4.09,85.952,3.573,105.86,44.488,17,34.932,20.854,57.251,67.1,60.785,62.43,4.77,142.343-8.7,190.134,42.229,24.046,25.623,66.881,78.978,109.2,55.676" transform="translate(0.099 90.542)" fill="none" stroke="#fff" stroke-width="0.25"/>
        <path id="Path_807" data-name="Path 807" d="M.071,64.992C56.022,85.884,120.244,97.034,179.7,92.053c57.019-4.777,111.838-11.48,168.318-20.337,66.029-10.353,173.4-6.284,172.652,66.842-.594,58.038-52.232,123.593-62.274,188.688-7.624,49.435,29.888,49.093,70.724,38.027,90.7-24.573,180.827-56.877,272.209-80.648,73.036-19,183.84-12.317,242.914,20.248,76.458,42.148-63.181,218.765,59.359,234.938,39.625,5.229,83.618,5.365,104.438,44.057,18.226,33.877,21.663,56.487,67.457,59.843,63.181,4.628,139.464-8.156,187.463,43.935,23.486,25.484,64.832,79.808,106.846,57.495" transform="translate(0.099 90.542)" fill="none" stroke="#fff" stroke-width="0.25"/>
        <path id="Path_808" data-name="Path 808" d="M.071,68.283c56.236,20.533,121.14,31.259,180.743,24.8C237.342,86.961,291.372,75.534,347.2,66.962c54.221-8.326,179.8-11.913,190.866,59.759,9.295,60.173-35.191,119.431-51.124,177.742-13.189,48.262,9.383,60.52,56.906,47.944,92.456-24.47,185.3-49.526,277.847-72.852,73.383-18.494,174.234-12.523,237.525,17.247,83.893,39.458-69.516,223.53,50.962,243.766,38.278,6.43,80.9,7.474,102.364,44.053,19.277,32.846,22.455,55.855,67.725,59.134,63.645,4.607,137.531-6.619,184.955,45.465,22.639,24.867,62.922,80.5,104.582,59.213" transform="translate(0.099 87.252)" fill="none" stroke="#fff" stroke-width="0.25"/>
        <path id="Path_809" data-name="Path 809" d="M.071,72.592c56.523,20.174,122.32,30.457,181.856,22.543C237.936,87.691,291.549,71.4,346.921,63.171c64.6-9.606,171.216-3.377,204.416,58.332,26.016,48.356-101.679,243.022,10.46,218.634,91.621-19.928,189.11-41.43,281.35-64.7,71.583-18.059,162.843-13.107,229.451,15.673,93.6,40.441-71.629,225.734,44.649,250.857,36.887,7.969,77.824,9.853,99.671,44.435,20.121,31.855,23.172,55.365,67.855,58.668,63.841,4.717,135.784-4.978,182.648,46.845,21.895,24.211,61.132,81.046,102.383,60.828" transform="translate(0.099 82.942)" fill="none" stroke="#fff" stroke-width="0.25"/>
        <path id="Path_810" data-name="Path 810" d="M.071,76.96C56.889,96.778,123.669,106.6,183.04,97.244c55.671-8.771,109.186-30.06,164.372-38.008,76.544-11.02,157.336,10.19,214.163,61.8,47.334,42.983-76.135,223.791,22.6,206.982,90.582-15.424,189.756-33.363,280.872-56.842C934.5,253.278,1021.091,258,1084.9,285.918c93.372,40.858-66.206,232.253,39.9,257.125,34.458,8.079,74.548,12.633,96.4,45.177,20.76,30.922,23.769,55.023,67.817,58.447,63.7,4.954,134.3-3.183,180.554,48.085,21.234,23.539,59.453,81.467,100.234,62.358" transform="translate(0.099 78.574)" fill="none" stroke="#fff" stroke-width="0.25"/>
        <path id="Path_811" data-name="Path 811" d="M.071,81.591c57.117,19.466,124.9,28.8,184.084,18.025,55.7-10.144,109.395-36.562,164.748-44.4,78.069-11.061,157.468,22.29,220.084,66.941,44.816,31.96,21.371,86.942,9.269,128.81-8.993,31.113-17.329,71.5,31.587,66.259,89.127-9.544,186.865-27.586,276.906-50.349,69.733-17.628,148.312-19.791,209.911,14.332,87.213,48.312-58.991,233.756,36.17,262.811,32.784,10.008,70.652,15.78,93.215,45.692,21.179,28.079,23.958,56.3,66.952,59.022,62.875,3.982,132.843-1.39,178.68,49.193,22.249,24.551,56.583,80.1,98.128,63.82" transform="translate(0.099 73.943)" fill="none" stroke="#fff" stroke-width="0.25"/>
        <path id="Path_812" data-name="Path 812" d="M.071,86.759C57.5,105.875,126.282,114.706,185.28,102.522c56.255-11.616,110.352-43.258,166.344-51.335,77.8-11.221,164.7,31.441,222.109,73.428,42.387,31,45.757,61.905,33.9,115.167-6.651,29.878-15.716,69.786,30.043,68.9,88.271-1.709,182.383-23.41,269.945-45.95,69.585-17.915,140.338-22.8,200.137,14.562,82.888,51.792-52.95,234.852,33.564,267.867,30.891,11.786,66.687,18.791,88.728,47.228,21.234,27.4,24.721,56.083,66.672,59.1,62.48,4.492,131.6.373,177.029,50.189,21.732,23.831,55.164,80.383,96.053,65.229" transform="translate(0.099 68.775)" fill="none" stroke="#fff" stroke-width="0.25"/>
        <path id="Path_813" data-name="Path 813" d="M.071,92.415c57.753,18.772,127.535,27.064,186.346,13.5C243.926,92.655,298.494,55.9,355.809,46.96c76.037-11.86,161.364,42.686,220.273,80.962C617.3,154.7,640.194,179.741,634.846,232.59c-3.023,29.873-10.544,66.852,31.738,70.088,86.258,6.6,176.6-22.431,260.456-44.01,70.738-18.2,129.664-25.652,191.146,15.543,84.037,56.313-50.741,231.813,32.077,272.24,28.926,14.119,62.473,21.931,83.817,49.093,21.064,26.805,25.288,55.944,66.129,59.326,62.018,5.138,130.576,2.087,175.593,51.1,21.222,23.108,53.848,80.593,94,66.6" transform="translate(0.099 63.119)" fill="none" stroke="#fff" stroke-width="0.25"/>
        <path id="Path_814" data-name="Path 814" d="M.071,98.069c58.1,18.434,128.769,26.095,187.5,11.236,59.517-15.06,113.5-56.152,173.3-66.383,75.383-12.9,155.9,51.9,215.535,88.268,38.62,23.551,77.925,48.174,82.515,97.611,2.783,29.964-2.594,63.262,36.56,69.925,82.474,14.033,170.922-25.927,248.9-44.541,27.129-6.476,57.2-12.538,84.954-17.762,39.015-7.342,69.848,12.614,98.63,35.129,44.962,35.169,26.329,92.473,18.7,145.22-4.8,33.176-23.005,107.925,12.966,130.636,26.664,16.833,58.067,25.183,78.552,51.237,20.681,26.3,25.611,55.877,65.3,59.694,61.525,5.921,129.746,3.726,174.359,51.94,20.72,22.393,52.618,80.754,91.968,67.941" transform="translate(0.099 57.465)" fill="none" stroke="#fff" stroke-width="0.25"/>
        <path id="Path_815" data-name="Path 815" d="M.071,103.365c58.459,18.1,130.086,25.14,188.681,8.965C249.866,95.46,304.4,50.125,366.341,39.172c77.324-13.674,146.79,57.361,208.832,94.574,39.92,23.946,85.877,48.253,103.735,93.93,11.178,28.591,7.9,59.041,44.4,68.479,75.96,19.643,165.762-33.3,235.725-47.2,26.525-5.272,52.089-14.414,78.909-20.33,38.259-8.438,72.583,17.549,98.109,40.367,40.623,36.318,26.858,91.286,20.928,143.925-3.891,34.547-19.609,108.5,12.411,134.779,23.723,19.471,53.518,28.543,72.993,53.611,20.1,25.884,25.652,55.88,64.165,60.194,61.037,6.835,129.083,5.284,173.313,52.742,20.224,21.7,51.462,80.888,89.941,69.274" transform="translate(0.099 52.169)" fill="none" stroke="#fff" stroke-width="0.25"/>
        <path id="Path_816" data-name="Path 816" d="M.071,108.3c58.847,17.781,131.4,24.147,189.89,6.689,62.681-18.7,117.979-68.07,182.232-79.323,81.122-14.206,137.32,60.6,200.769,99.669,42.03,25.877,93,50.222,121.487,92.777,17.3,25.834,20.471,56.617,54.592,66.218,75.489,21.241,153.187-39.927,221.369-51.3,26.183-4.367,48.355-17,73.988-22.9,38.422-8.847,76.159,23.077,99.26,46.5,35.789,36.287,26.2,92.08,22.472,142.819-2.766,37.689-13.859,108.454,13.4,137.89,19.341,20.887,48.609,32.252,66.747,56.59,18.946,25.425,26.365,55.793,63.183,60.379,60.276,7.507,128.552,6.768,172.434,53.541,19.722,21.021,50.394,81,87.911,70.607" transform="translate(0.099 47.229)" fill="none" stroke="#fff" stroke-width="0.25"/>
        <path id="Path_817" data-name="Path 817" d="M.071,112.9c59.266,17.465,132.7,23.11,191.134,4.408C255.468,96.74,311.651,43.594,378.393,32.377,463.682,18.045,507.45,94.151,570.449,135.787c43.344,28.646,95.637,53.288,133.048,91.8,21.816,22.452,37.036,57.167,68.156,64.722,71.176,17.286,137.543-42.954,207.14-55.793,24.585-4.537,46.577-20.631,70.233-25.4,39.944-8.055,80.23,28.205,102.165,53.307,61.085,69.9-12.327,206.675,38.807,281.953,15.022,22.115,43.952,35.617,60.869,59.213,18.008,25.123,25.733,55.947,61.369,61.137,59.888,8.721,128.111,8.189,171.69,54.374,19.229,20.38,49.358,81.113,85.877,71.949" transform="translate(0.099 42.638)" fill="none" stroke="#fff" stroke-width="0.25"/>
        <path id="Path_818" data-name="Path 818" d="M.071,117.084c59.72,17.159,133.886,21.976,192.417,2.123C258.093,96.953,314.956,39.458,384.9,29.165,474.379,16,507.775,88.874,568.417,134.91c42.973,32.625,96.122,56.42,139.6,91.35,25.446,20.442,50.744,57.256,82.135,62.487,66.17,11.03,130.232-44.036,193.807-60.19,21.71-5.516,46.252-22.739,68.877-26.992,41.741-7.849,85.243,33.573,106.159,60.692,52.608,68.214,4.348,206.058,41.772,282.516,11.236,22.955,39.061,38.953,54.879,61.922,17.061,24.774,25.625,55.678,59.28,61.944,59.309,11.039,126.752,8.539,171.049,55.279,18.745,19.779,48.337,81.259,83.829,73.316" transform="translate(0.099 38.45)" fill="none" stroke="#fff" stroke-width="0.25"/>
        <path id="Path_819" data-name="Path 819" d="M.071,121.08c60.213,16.862,135.157,20.844,193.748-.172,67.323-24.151,125.206-84.762,197.845-94.737,89.254-12.255,121.911,56.344,176.089,106.7,39,36.246,94.519,59.922,140.728,91.219,29.249,19.81,60.2,54.386,95.242,58.256,61.413,6.785,124.96-42.552,182.588-62.882,21.376-7.541,47.913-23.065,70.791-26.107,45.151-6,88.744,36.349,110.225,66.952,25.025,35.65,15.3,96.479,18.851,141.522,3.719,47.188,11.516,99.947,25.614,140.953,8.149,23.7,34.062,42.033,48.841,64.67,16,24.5,24.637,55.824,56.944,62.76,58.929,12.65,126.29,9.821,170.467,56.3,18.274,19.226,47.312,81.443,81.761,74.713" transform="translate(0.099 34.454)" fill="none" stroke="#fff" stroke-width="0.25"/>
        <path id="Path_820" data-name="Path 820" d="M.071,124.879c60.75,16.575,136.408,19.662,195.128-2.477C264.366,96.324,323.05,32.89,398.625,23.293c86.337-10.965,125.086,50.074,170.812,106.379,31.817,39.178,89.769,63.542,135.63,91.085,32.59,19.569,67.852,50.1,106.276,53.328,55.377,4.65,125.7-43.514,175.545-64.366,78.112-32.676,141.384-26.456,189.476,48.8,23.455,36.7,8.208,96.864,14.263,142.008,6.4,47.7,22.778,96.68,32.393,139.912,5.423,24.379,28.974,44.751,42.82,67.407,14.825,24.254,23.414,55.927,54.393,63.54,58.531,14.383,125.845,11.181,169.9,57.49,18.9,19.863,45.18,80.043,79.67,76.154" transform="translate(0.099 30.655)" fill="none" stroke="#fff" stroke-width="0.25"/>
        <path id="Path_821" data-name="Path 821" d="M.071,128.641c64.172,17.051,137.1,16.032,196.569-4.791,69.4-24.3,130.478-93.949,209.076-103.266,83.826-9.939,130.344,39.19,168.847,104.967,24.613,42.047,81.883,67.12,124.368,90.767,35.153,19.564,73.318,46.116,113.7,48.848,32.506,2.2,59.5-13.808,87.8-28.84,28.047-14.9,58.2-24.991,86.188-36.443,79.256-32.422,154.06-18.736,199.587,57.122,22.866,38.1-.2,96.821,7.931,142.963,8.311,47.178,34.332,93.045,40.271,137.961,3.346,25.293,23.874,47.09,36.876,70.09,14.383,25.441,21.275,54.372,51.68,64.231,57.84,18.757,125.72,12.9,169.3,58.9,18.537,19.571,44.024,80.2,77.545,77.643" transform="translate(0.099 26.893)" fill="none" stroke="#fff" stroke-width="0.25"/>
        <path id="Path_822" data-name="Path 822" d="M.071,132.366c64.875,16.781,138.287,14.7,198.072-7.115,71.514-26.1,133.06-98.13,214.719-107.327C496.219,8.536,552.723,51,583.042,120.558c27.133,62.25,158.3,132.024,226.117,135.169,32.958,1.529,60.1-15.591,89.067-30.285,28.5-14.457,59.144-25.195,88.053-35.172,82.022-28.3,166.59-11.813,210.586,65.454,22.881,40.185-9.374,96.9.019,144.356,9.307,47.02,46.211,87.184,49.014,135.228,2.07,35.512,44.852,125.828,79.926,137.442,57.425,19.013,125.3,14.706,168.594,60.577,18.176,19.26,42.88,80.45,75.388,79.189" transform="translate(0.099 23.168)" fill="none" stroke="#fff" stroke-width="0.25"/>
        <path id="Path_823" data-name="Path 823" d="M.071,136.152c65.622,16.517,139.5,13.339,199.649-9.45C273.39,98.79,335.528,24.723,419.979,15.278c77.865-8.706,143.389,24.216,172.449,99.458C620.393,187.147,726.785,244.163,802.439,245.9c60.06,1.381,126.477-48.853,184.077-64.708,86.208-23.733,178.274-4.724,221.764,73.543,23.551,42.382-18.9,97.295-9.182,146.122,9.46,47.528,57.1,84.248,58.33,131.856.9,35.023,35.459,127.106,71.454,140.2,56.8,20.658,124.94,16.96,167.734,62.592,17.831,19.016,41.686,80.775,73.189,80.8" transform="translate(0.099 19.382)" fill="none" stroke="#fff" stroke-width="0.25"/>
        <path id="Path_824" data-name="Path 824" d="M.071,140.313c66.416,16.259,140.67,11.911,201.3-11.8,76.616-29.96,138.433-104.338,225.6-115.7C502.7,2.943,574.752,31.339,602.529,108.29,629.8,183.839,713.084,236.06,793.871,236.055c63.959,0,131.014-50.1,193.98-62.961,89.436-18.272,187.966,2.69,232.454,81.223,25.109,44.326-28.4,97.912-19.26,148.163,8.785,48.288,66.972,82.651,67.888,128.032.708,35.014,26.233,126.711,63.279,142.468,54.312,23.1,124.756,19.932,166.643,65,17.52,18.855,40.415,81.182,70.949,82.482" transform="translate(0.099 15.221)" fill="none" stroke="#fff" stroke-width="0.25"/>
        <path id="Path_825" data-name="Path 825" d="M.071,144.821c66.847,16.252,142.334,10.6,203.042-14.163C281.747,98.581,343.76,24.433,433.742,10.342,507.6-1.226,586.952,24.33,613.2,101.166c12.834,37.582,20.339,65.416,55.966,87.763,33.363,20.926,76.726,38.132,115.588,37.3,68.6-1.467,137.162-51.306,205.912-60.247,86.705-11.276,196.99,5.133,242.055,88.419,26.906,49.727-37.479,98.9-29.665,150.353,7.433,48.959,75.348,80.249,76.846,124.254,1.216,35.641,18.228,125.649,56,143.844,51.512,24.814,124.254,23.242,165.245,67.881,17.247,18.781,39.051,81.67,68.664,84.238" transform="translate(0.099 10.713)" fill="none" stroke="#fff" stroke-width="0.25"/>
        <path id="Path_826" data-name="Path 826" d="M.071,149.826c67.74,16.022,143.889,9.2,204.873-16.541C285.188,99.417,348.266,25.467,440.179,7.834,511.719-5.888,598.956,17.2,624.266,93.554c10.573,31.893,15.208,66.079,42.7,88.2,28.038,22.562,74.055,36.1,109.3,34.906,73.354-2.477,144.207-51.627,218.938-56.7,90.405-6.134,201.36,13.2,250.005,95.151,30.888,52.039-45.644,100.487-39.7,152.524,5.7,49.873,82,77.525,84.846,120.652,2.362,35.856,10.085,123.617,49.839,144.334,51.04,26.6,123.1,26.856,163.29,71.282,17.008,18.8,37.582,82.24,66.328,86.076" transform="translate(0.099 5.709)" fill="none" stroke="#fff" stroke-width="0.25"/>
        <path id="Path_827" data-name="Path 827" d="M.071,155.351c68.688,15.8,145.6,7.778,206.8-18.937C288.416,100.829,353.768,26.771,446.164,5.135,514.708-10.918,610.216,10.553,635.58,85.6c9.314,27.562,12.909,67.127,34.172,89.333,22.854,23.864,68.357,34.313,99.743,32.525,78.057-4.446,151.937-51.17,232.088-52.558,91.894-1.591,201.707,19.42,255.744,101.5,35.873,54.5-50.361,102.632-47.429,154,2.979,52.223,85.5,75.161,90.434,117.924,4.157,36.026,2.994,122.16,44.347,144.425,49.782,26.8,122.33,31.032,161.184,74.752,16.812,18.918,36,82.888,63.942,88" transform="translate(0.099 0.183)" fill="none" stroke="#fff" stroke-width="0.25"/>
      </g>
    </g>
  </g>
</svg>
